<?xml version="1.0" standalone="no"?>
<!DOCTYPE svg PUBLIC "-//W3C//DTD SVG 20010904//EN"
 "http://www.w3.org/TR/2001/REC-SVG-20010904/DTD/svg10.dtd">
<svg version="1.0" xmlns="http://www.w3.org/2000/svg"
 width="500.000000pt" height="500.000000pt" viewBox="0 0 500.000000 500.000000"
 preserveAspectRatio="xMidYMid meet">
<metadata>
Created by potrace 1.11, written by Peter Selinger 2001-2013
</metadata>
<g transform="translate(0.000000,500.000000) scale(0.100000,-0.100000)"
fill="#000000" stroke="none">
<path d="M1623 4418 c-1 -106 -2 -337 -2 -514 l-1 -321 -32 2 c-18 2 -116 6
-217 10 -101 4 -192 8 -202 10 -11 2 -19 -1 -19 -6 0 -6 65 -138 145 -293 80
-156 145 -288 145 -292 0 -5 -23 -22 -52 -39 -28 -16 -67 -39 -85 -50 -18 -11
-152 -92 -297 -180 -146 -88 -291 -175 -323 -194 -32 -19 -122 -74 -200 -121
l-142 -87 167 -94 c92 -52 176 -99 187 -105 11 -6 53 -29 93 -53 91 -53 188
-107 230 -128 17 -9 32 -20 32 -25 0 -5 -93 -245 -206 -534 -113 -289 -204
-527 -203 -529 2 -2 60 6 129 16 118 18 147 22 230 34 19 3 91 14 160 24 69
11 145 23 170 26 76 11 114 16 145 22 39 6 59 9 120 17 28 4 61 9 75 11 14 3
43 7 65 10 22 4 65 10 95 15 30 5 75 12 100 15 25 3 52 8 60 10 8 2 38 6 65
10 53 6 95 13 135 20 14 3 48 7 75 11 28 3 70 10 95 14 25 5 45 8 46 7 1 -1
56 -110 124 -242 67 -132 147 -288 178 -348 30 -59 56 -106 57 -105 2 2 55 86
120 188 64 102 121 189 125 194 5 4 97 -42 204 -103 108 -61 199 -111 202
-111 3 0 3 153 1 339 l-5 339 76 11 c43 6 88 13 102 16 25 4 220 33 275 41 16
2 39 5 50 8 11 2 59 9 108 16 48 7 89 15 92 19 4 8 -25 46 -270 358 l-135 172
47 76 c27 43 57 92 68 109 11 18 64 102 117 187 l98 155 162 94 c89 52 170
100 179 105 10 6 30 17 46 26 64 35 243 141 243 144 0 2 -61 38 -136 82 -75
43 -138 83 -141 89 -2 6 57 107 132 224 74 117 135 216 135 221 0 5 -28 10
-62 10 -35 1 -88 3 -118 4 -30 1 -131 6 -225 10 -93 4 -195 9 -225 10 -103 5
-375 17 -439 19 -54 3 -74 9 -136 46 l-74 44 -1 190 c-2 296 -4 396 -7 396 -2
0 -112 -66 -245 -146 -132 -80 -247 -143 -254 -140 -8 3 -103 58 -212 122
-108 64 -213 125 -232 136 -19 11 -203 119 -408 240 -206 121 -379 221 -386
224 -9 4 -13 -40 -13 -188z m462 -243 c149 -87 302 -177 340 -200 39 -23 123
-73 188 -111 64 -38 117 -72 117 -76 0 -3 -12 -13 -27 -21 -16 -8 -88 -51
-162 -96 -74 -44 -135 -80 -136 -78 -9 11 -422 539 -440 561 -22 26 -45 29
-45 4 0 -14 -139 -370 -148 -380 -5 -5 -7 427 -3 561 1 22 2 22 24 9 12 -8
144 -86 292 -173z m1151 -384 c0 -138 15 -132 -125 -48 l-83 50 43 26 c24 15
67 41 94 58 28 18 55 32 60 32 6 1 10 -45 11 -118z m-1127 -57 c135 -171 143
-185 112 -179 -16 3 -269 16 -359 18 -7 0 -11 3 -10 7 2 4 30 75 63 159 33 83
62 151 66 151 3 0 61 -70 128 -156z m819 -53 c15 -10 77 -47 137 -82 164 -94
159 -89 79 -84 -72 4 -314 15 -444 19 -41 2 -74 7 -72 12 4 14 234 152 255
153 10 1 30 -7 45 -18z m-1320 -246 c6 -2 12 -15 12 -27 0 -31 -79 -238 -90
-238 -4 1 -130 245 -138 269 -3 8 190 5 216 -4z m430 -17 c39 -1 72 -3 72 -5
0 -1 -42 -27 -92 -58 -100 -61 -105 -64 -185 -113 -29 -18 -58 -30 -63 -27
-13 8 -6 134 10 178 l14 37 86 -5 c47 -2 118 -6 158 -7z m796 -608 c49 -63
124 -158 165 -211 42 -53 88 -112 102 -130 15 -19 54 -69 88 -112 54 -68 62
-84 65 -127 2 -26 1 -52 -3 -58 -3 -5 -195 -118 -426 -252 -490 -283 -506
-293 -509 -288 -2 2 -29 55 -61 118 -32 63 -84 165 -115 225 -31 61 -130 252
-218 426 l-161 315 2 158 2 158 304 183 303 184 186 -237 c102 -130 226 -289
276 -352z m-74 576 c69 -3 202 -8 295 -12 94 -3 174 -9 178 -14 8 -7 22 -840
15 -840 -2 0 -22 24 -43 52 -22 29 -123 159 -225 288 -102 129 -194 247 -205
261 -11 15 -60 78 -109 140 -49 63 -93 119 -97 125 -6 7 4 9 29 8 20 -2 93 -5
162 -8z m995 -192 c149 -86 305 -178 347 -203 50 -29 75 -49 70 -57 -4 -6 -58
-92 -120 -190 l-114 -179 -250 -144 -250 -144 -19 24 c-10 13 -19 40 -19 59
-5 165 -13 973 -11 993 1 4 23 5 49 3 40 -3 91 -29 317 -162z m365 130 c69 -3
160 -7 203 -8 43 -2 79 -5 81 -7 7 -8 -144 -234 -154 -231 -14 3 -422 241
-435 254 -6 5 28 7 85 3 52 -2 151 -7 220 -11z m224 -475 c20 -12 36 -22 36
-24 0 -5 -141 -85 -150 -85 -5 0 9 29 32 65 23 36 43 65 44 65 2 0 19 -9 38
-21z m-2957 -61 c-19 -48 -262 -666 -270 -691 -8 -21 22 -36 -299 146 -98 55
-178 103 -178 106 0 5 548 338 658 401 15 8 38 23 52 33 29 20 44 22 37 5z
m228 -545 c0 -244 -3 -443 -7 -443 -4 0 -23 9 -43 20 -19 11 -52 29 -72 41
-167 93 -253 144 -253 149 0 8 298 769 307 783 3 6 20 -16 37 -49 l30 -59 1
-442z m295 -138 c78 -154 174 -339 211 -412 38 -72 69 -134 69 -136 0 -3 -16
-14 -36 -26 -33 -20 -37 -20 -67 -4 -61 31 -312 175 -321 183 -5 5 -9 125 -8
272 1 145 2 296 2 337 0 41 2 72 3 70 2 -2 68 -130 147 -284z m1839 163 c-27
-50 -131 -208 -137 -208 -4 1 -24 23 -45 50 -35 45 -36 50 -20 60 92 56 199
118 206 119 4 1 2 -9 -4 -21z m-280 -268 l62 -80 -52 -82 c-29 -46 -57 -88
-63 -95 -8 -9 -11 36 -12 162 -1 96 0 175 1 175 1 0 30 -36 64 -80z m-208
-257 l3 -242 -32 -49 -31 -48 -123 -19 c-68 -10 -133 -19 -144 -21 -12 -1 -39
-5 -60 -8 -74 -12 -159 -25 -199 -31 -23 -3 -50 -7 -61 -9 -11 -2 -44 -7 -74
-11 l-55 -7 -48 98 c-27 53 -45 100 -40 105 4 4 78 48 163 97 265 153 583 338
635 369 28 17 53 28 57 24 4 -3 8 -115 9 -248z m-1936 45 c44 -25 103 -58 130
-73 28 -16 74 -42 103 -58 l52 -29 0 -234 c0 -129 -3 -233 -7 -232 -7 2 -61
-6 -121 -16 -16 -3 -54 -9 -152 -22 -19 -3 -73 -11 -120 -19 -47 -8 -134 -21
-195 -30 -60 -9 -118 -18 -127 -21 -11 -3 -18 0 -18 8 0 7 70 192 157 410
l156 398 31 -19 c17 -10 67 -39 111 -63z m2415 -133 c51 -66 98 -126 103 -133
5 -7 8 -14 6 -17 -3 -2 -68 -14 -144 -25 -77 -12 -151 -23 -165 -25 -92 -16
-132 -17 -128 -3 1 8 50 89 108 181 79 125 108 163 116 154 6 -7 53 -66 104
-132z m-1857 -182 c70 -41 94 -63 67 -63 -5 0 -38 -18 -73 -39 -35 -21 -77
-46 -93 -54 l-29 -15 2 117 c0 64 2 117 2 119 1 4 28 -11 124 -65z m305 -172
c34 -19 61 -35 59 -37 -3 -4 -52 -12 -108 -19 -24 -3 -69 -10 -99 -15 -81 -13
-144 -20 -139 -16 10 11 215 125 219 123 3 -1 33 -17 68 -36z m876 -119 c-21
-31 -50 -78 -66 -105 -17 -26 -33 -46 -36 -44 -97 48 -249 143 -240 148 12 6
45 12 148 25 19 3 45 7 58 10 12 2 44 7 70 10 26 3 48 6 49 8 1 1 13 3 28 4
l25 2 -36 -58z m206 -138 l1 -185 -83 45 c-52 28 -82 51 -82 61 2 12 154 265
161 265 1 0 2 -84 3 -186z m-490 -78 c19 -11 49 -28 65 -37 17 -9 29 -24 29
-32 -2 -19 -86 -156 -96 -157 -4 0 -44 73 -88 161 l-82 162 69 -38 c37 -21 84
-47 103 -59z"/>
</g>
</svg>
