<?xml version="1.0" encoding="utf-8"?><svg xmlns="http://www.w3.org/2000/svg" xmlns:xlink="http://www.w3.org/1999/xlink"><symbol viewBox="0 0 15.96 15.96" aria-labelledby="aenlarge-icon-desc aenlarge-icon-title" id="enlarge-icon"><desc id="aenlarge-icon-desc">Enlarge image</desc><defs><style>.acls-1{fill:#fff}</style></defs><title id="aenlarge-icon-title">Enlarge image</title><g id="aLayer_2" data-name="Layer 2"><path class="acls-1" d="M0 0v16h16V0zm13.3 7.54L11.8 6 6 11.8l1.5 1.5H2.66V8.42l1.5 1.5 5.76-5.76-1.5-1.5h4.88z" id="aLayer_1-2" data-name="Layer 1"/></g></symbol><symbol viewBox="0 0 16 16" aria-labelledby="bfacebook-icon-desc bfacebook-icon-title" id="facebook-icon"><desc id="bfacebook-icon-desc">Facebook logo</desc><defs><style>.bcls-1{fill:#fff;fill-rule:evenodd}</style></defs><title id="bfacebook-icon-title">Facebook</title><g id="bLayer_2" data-name="Layer 2"><g id="bLayer_1-2" data-name="Layer 1"><path id="bicon-facebook" class="bcls-1" d="M14.06 0H1.94A1.94 1.94 0 0 0 0 1.94v12.12A1.94 1.94 0 0 0 1.94 16h12.12A1.94 1.94 0 0 0 16 14.06V1.94A1.94 1.94 0 0 0 14.06 0zm-3.43 4.3H9.39c-.44 0-.53.18-.53.63V6h1.77l-.17 2h-1.6v5.7h-2.3V8H5.37V6h1.19V4.49c0-1.44.77-2.19 2.44-2.19h1.59z"/></g></g></symbol><symbol viewBox="0 0 17 17" aria-labelledby="cinstagram-icon-desc cinstagram-icon-title" id="instagram-icon"><desc id="cinstagram-icon-desc">Instagram logo</desc><defs><style>.ccls-1,.ccls-2{fill:#fff}.ccls-2{fill-rule:evenodd}</style></defs><title id="cinstagram-icon-title">Instagram</title><g id="cLayer_2" data-name="Layer 2"><g id="cLayer_1-2" data-name="Layer 1"><g id="cicon-instagram"><circle class="ccls-1" cx="13.04" cy="3.96" r="1.02"/><path class="ccls-2" d="M8.5 4.14a4.37 4.37 0 1 0 4.36 4.36A4.36 4.36 0 0 0 8.5 4.14zm0 7.2a2.83 2.83 0 1 1 2.83-2.84 2.83 2.83 0 0 1-2.83 2.83z"/><path class="ccls-2" d="M16.95 5C16.81 1.91 15.1.19 12 .05 11.1 0 10.81 0 8.5 0S5.9 0 5 .05C1.91.19.19 1.91.05 5 0 5.9 0 6.19 0 8.5s0 2.6.05 3.5c.14 3.09 1.85 4.8 4.94 4.94.91 0 1.2.05 3.5.05s2.6 0 3.5-.05c3.08-.14 4.8-1.85 4.94-4.94 0-.91.05-1.2.05-3.5S17 5.9 16.95 5zm-1.53 6.94c-.11 2.28-1.18 3.38-3.48 3.48H5.07c-2.31-.11-3.38-1.2-3.48-3.48V8.51 5.08C1.7 2.79 2.77 1.7 5.07 1.6h6.87c2.3.1 3.38 1.2 3.48 3.48v3.43c0 2.26.04 2.49 0 3.43z"/></g></g></g></symbol><symbol viewBox="0 0 15.12 15.12" aria-labelledby="dletter-icon-desc dletter-icon-title" id="letter-icon"><desc id="dletter-icon-desc">Letter</desc><defs><style>.dcls-1{fill:#fff}</style></defs><title id="dletter-icon-title">Email</title><g id="dLayer_2" data-name="Layer 2"><g id="dLayer_1-2" data-name="Layer 1"><path class="dcls-1" d="M15.12 0l-3.78 13.86L6.22 9.3l4.91-5.19-6.58 4.56L0 7.56 15.12 0z"/><path class="dcls-1" d="M5.67 10.5v4.62l2.05-2.79-2.05-1.83z"/></g></g></symbol><symbol viewBox="0 0 16.88 17" aria-labelledby="esearch-icon-desc esearch-icon-title" id="search-icon"><desc id="esearch-icon-desc">Loupe</desc><defs><style>.ecls-1{fill:#fff;fill-rule:evenodd}</style></defs><title id="esearch-icon-title">Search</title><g id="eLayer_2" data-name="Layer 2"><g id="eLayer_1-2" data-name="Layer 1"><g id="eicon-search"><path class="ecls-1" d="M13 11a8.05 8.05 0 0 1-2.16 2.11l3.9 3.89 2.13-2.13zM6.48 0A6.48 6.48 0 1 0 13 6.48 6.49 6.49 0 0 0 6.48 0zm0 10.74a4.27 4.27 0 1 1 4.27-4.27 4.27 4.27 0 0 1-4.27 4.27z"/></g></g></g></symbol><symbol viewBox="0 0 16 13" aria-labelledby="ftwitter-icon-desc ftwitter-icon-title" id="twitter-icon"><desc id="ftwitter-icon-desc">Twitter logo</desc><defs><style>.fcls-1{fill:#fff;fill-rule:evenodd}</style></defs><title id="ftwitter-icon-title">Twitter</title><g id="fLayer_2" data-name="Layer 2"><g id="fLayer_1-2" data-name="Layer 1"><path id="ficon-twitter" class="fcls-1" d="M16 1.54a6.56 6.56 0 0 1-1.88.52A3.29 3.29 0 0 0 15.55.24a6.57 6.57 0 0 1-2.08.8A3.28 3.28 0 0 0 7.88 4 9.32 9.32 0 0 1 1.11.6 3.29 3.29 0 0 0 2.13 5a3.27 3.27 0 0 1-1.49-.43 3.29 3.29 0 0 0 2.64 3.26 3.29 3.29 0 0 1-1.48.06 3.28 3.28 0 0 0 3.07 2.28A6.6 6.6 0 0 1 0 11.53 9.29 9.29 0 0 0 5 13a9.28 9.28 0 0 0 9.33-9.76A6.67 6.67 0 0 0 16 1.54z"/></g></g></symbol><symbol viewBox="0 0 21.38 15" aria-labelledby="gyoutube-icon-desc gyoutube-icon-title" id="youtube-icon"><desc id="gyoutube-icon-desc">YouTube logo</desc><defs><style>.gcls-1{fill:#fff;fill-rule:evenodd}</style></defs><title id="gyoutube-icon-title">YouTube</title><g id="gLayer_2" data-name="Layer 2"><g id="gLayer_1-2" data-name="Layer 1"><path id="gicon-youtube" class="gcls-1" d="M8.56 10.48v-6l5.72 3zm12.63-6.91C20.85.71 19.72.32 17.47.16 14.26-.05 7.11-.05 3.91.16 1.66.32.52.71.19 3.57a41.37 41.37 0 0 0 0 7.87c.34 2.86 1.47 3.25 3.72 3.4 3.21.22 10.36.22 13.56 0 2.25-.15 3.38-.55 3.72-3.4a41.38 41.38 0 0 0 0-7.87z"/></g></g></symbol></svg>