<svg xmlns="http://www.w3.org/2000/svg" viewBox="0 0 16 16"><defs><style>.cls-1{fill:#fff;fill-rule:evenodd;}</style></defs><title>icon-facebook</title><g id="Layer_2" data-name="Layer 2"><g id="Layer_1-2" data-name="Layer 1"><path id="icon-facebook" class="cls-1" d="M14.06,0H1.94A1.94,1.94,0,0,0,0,1.94V14.06A1.94,1.94,0,0,0,1.94,16H14.06A1.94,1.94,0,0,0,16,14.06V1.94A1.94,1.94,0,0,0,14.06,0ZM10.63,4.3H9.39c-.44,0-.53.18-.53.63V6h1.77L10.46,8H8.86V13.7H6.56V8H5.37V6H6.56V4.49C6.56,3.05,7.33,2.3,9,2.3h1.59Z"/></g></g></svg>