<svg xmlns="http://www.w3.org/2000/svg" viewBox="0 0 17 17"><defs><style>.cls-1,.cls-2{fill:#fff;}.cls-2{fill-rule:evenodd;}</style></defs><title>icon-instagram</title><g id="Layer_2" data-name="Layer 2"><g id="Layer_1-2" data-name="Layer 1"><g id="icon-instagram"><circle class="cls-1" cx="13.04" cy="3.96" r="1.02"/><path class="cls-2" d="M8.5,4.14A4.37,4.37,0,1,0,12.86,8.5,4.36,4.36,0,0,0,8.5,4.14Zm0,7.2A2.83,2.83,0,1,1,11.33,8.5,2.83,2.83,0,0,1,8.5,11.33Z"/><path class="cls-2" d="M16.95,5C16.81,1.91,15.1.19,12,.05,11.1,0,10.81,0,8.5,0S5.9,0,5,.05C1.91.19.19,1.91.05,5,0,5.9,0,6.19,0,8.5S0,11.1.05,12c.14,3.09,1.85,4.8,4.94,4.94.91,0,1.2.05,3.5.05s2.6,0,3.5-.05c3.08-.14,4.8-1.85,4.94-4.94,0-.91.05-1.2.05-3.5S17,5.9,16.95,5Zm-1.53,6.94c-.11,2.28-1.18,3.38-3.48,3.48-.9,0-1.16,0-3.44,0s-2.54,0-3.43,0c-2.31-.11-3.38-1.2-3.48-3.48,0-.9,0-1.16,0-3.43s0-2.54,0-3.43c.11-2.29,1.18-3.38,3.48-3.48.9,0,1.17,0,3.43,0s2.54,0,3.44,0c2.3.1,3.38,1.2,3.48,3.48,0,.9,0,1.17,0,3.43S15.46,11,15.42,11.94Z"/></g></g></g></svg>