<?xml version="1.0" encoding="UTF-8" standalone="no"?>
<svg width="144px" height="47px" viewBox="0 0 144 47" version="1.1" xmlns="http://www.w3.org/2000/svg" xmlns:xlink="http://www.w3.org/1999/xlink">
    <!-- Generator: Sketch 39.1 (31720) - http://www.bohemiancoding.com/sketch -->
    <title>logo</title>
    <desc>Created with Sketch.</desc>
    <defs>
        <path d="M8.9007394,22.5556876 L6.86471611,29.4661958 L17.7765418,26.8354121 L20.3911792,31 L21.7395617,28.39207 L24.3996984,29.6012932 L23.9724626,25.3415296 L28.3838941,24.2781075 L25.4745126,21.1691309 L27.2707344,17.6953624 L31.0154148,15.0616857 L29.10244,14.1527433 L30.6396877,11.179732 L23.4848472,11.483195 L22.5379461,11.0333524 L22.1688006,7.35071803 L19.2556991,9.47380158 L10.9939945,5.54816542 L11.531974,11.9903166 L8.53645863,12.117314 L10.7624917,15.6634045 L4.22289363,20.4291326 L8.9007394,22.5556876 L8.9007394,22.5556876 Z M6.02770021,20.2442776 L10.5533092,16.9461068 L9.16200282,21.6690203 L6.02770021,20.2442776 L6.02770021,20.2442776 Z M22.4523845,19.2745847 L22.5173426,19.9211431 L16.9627048,23.8276863 L12.8889413,17.339249 L12.7241136,15.3642808 L16.3320098,12.7346543 L22.4523845,19.2745847 L22.4523845,19.2745847 Z M17.5058351,12.6548108 L21.7707531,12.4737166 L22.3027232,17.7801237 L17.5058351,12.6548108 L17.5058351,12.6548108 Z M13.053769,19.3127707 L16.2172599,24.3518759 L15.7642698,24.6703818 L13.4117543,23.6008846 L13.053769,19.3127707 L13.053769,19.3127707 Z M12.4657117,23.1710028 L9.99644328,22.048566 L11.5216723,16.8723384 L12.0038506,17.6403977 L12.4657117,23.1710028 L12.4657117,23.1710028 Z M14.8960625,25.2810684 L13.6266599,26.1738108 L13.4990329,24.6460816 L14.8960625,25.2810684 L14.8960625,25.2810684 Z M15.8607054,25.7196288 L16.7735535,26.1347569 L14.4865686,26.6858503 L15.8607054,25.7196288 L15.8607054,25.7196288 Z M22.6112029,24.7270822 L18.2186579,25.786165 L18.1814572,25.7693863 L17.4491756,24.6023991 L22.6217908,20.9646044 L22.9362798,24.098749 L22.6112029,24.7270822 L22.6112029,24.7270822 Z M22.0543369,25.8041009 L21.3317847,27.2013612 L19.5736221,26.4020589 L22.0543369,25.8041009 L22.0543369,25.8041009 Z M23.4736869,20.3657785 L23.4736869,20.3654892 L24.3707963,21.3241892 L23.6997528,22.6219345 L23.4736869,20.3657785 L23.4736869,20.3657785 Z M23.3237395,18.8710282 L22.6784503,12.4352413 L23.3002744,12.4089161 L27.8602226,14.5756822 L26.5699304,17.0710792 L23.5961631,19.1623411 L23.3237395,18.8710282 L23.3237395,18.8710282 Z M17.7133006,11.7282218 L19.3529933,10.5331737 L21.5272315,11.5662206 L17.7133006,11.7282218 L17.7133006,11.7282218 Z M12.7043686,12.8584695 L14.7292316,12.772551 L12.635118,14.2985444 L12.5567104,13.359516 L12.7043686,12.8584695 L12.7043686,12.8584695 Z M12.9779368,11.9289876 L13.6006194,9.81602911 L15.4786828,11.8228189 L12.9779368,11.9289876 L12.9779368,11.9289876 Z M9.73546602,22.9352332 L12.5529903,24.2159106 L12.7930779,27.0943247 L8.1824796,28.2057686 L9.73546602,22.9352332 L9.73546602,22.9352332 Z M20.3150608,29.1676507 L19.0648309,27.1761932 L20.9108444,28.0154172 L20.3150608,29.1676507 L20.3150608,29.1676507 Z M22.160502,27.578014 L23.1022522,25.7566577 L23.3386198,28.1137751 L22.160502,27.578014 L22.160502,27.578014 Z M26.6451903,23.7544964 L23.8803193,24.4213049 L23.8660113,24.2795539 L25.0301073,22.0286051 L26.6451903,23.7544964 L26.6451903,23.7544964 Z M24.8152017,20.464715 L24.2268582,19.8360925 L25.6622331,18.8261886 L24.8152017,20.464715 L24.8152017,20.464715 Z M29.2077466,15.2158762 L28.1784317,15.9399637 L28.6817859,14.9659315 L29.2077466,15.2158762 L29.2077466,15.2158762 Z M29.107877,12.1624429 L28.2808767,13.7622047 L25.2578901,12.3258905 L29.107877,12.1624429 L29.107877,12.1624429 Z M21.4247865,9.02338039 L21.5807433,10.5785919 L20.1945877,9.91988345 L21.4247865,9.02338039 L21.4247865,9.02338039 Z M18.4141047,10.0870918 L16.4453288,11.5216703 L13.1796791,8.03228021 L12.3475279,10.8563082 L12.0301773,7.0536194 L18.4141047,10.0870918 L18.4141047,10.0870918 Z M11.6083785,12.9047555 L11.6384252,13.2637617 L11.2206327,14.6818508 L10.1441015,12.9669524 L11.6083785,12.9047555 L11.6083785,12.9047555 Z" id="path-1"></path>
        <filter x="-50%" y="-50%" width="200%" height="200%" filterUnits="objectBoundingBox" id="filter-2">
            <feOffset dx="0" dy="0" in="SourceAlpha" result="shadowOffsetOuter1"></feOffset>
            <feGaussianBlur stdDeviation="5.5" in="shadowOffsetOuter1" result="shadowBlurOuter1"></feGaussianBlur>
            <feColorMatrix values="0 0 0 0 1   0 0 0 0 0.160784314   0 0 0 0 0.258823529  0 0 0 0.441632699 0" type="matrix" in="shadowBlurOuter1"></feColorMatrix>
        </filter>
    </defs>
    <g id="Front" stroke="none" stroke-width="1" fill="none" fill-rule="evenodd">
        <g id="Group-6" transform="translate(4.000000, 4.000000)">
            <g id="Fill-8-Copy" transform="translate(17.619154, 18.274083) rotate(-26.000000) translate(-17.619154, -18.274083) ">
                <use fill="black" fill-opacity="1" filter="url(#filter-2)" xlink:href="#path-1"></use>
                <use fill="#FF2942" fill-rule="evenodd" xlink:href="#path-1"></use>
            </g>
            <polyline id="Fill-10" fill="#FFFFFF" points="63.7747831 18.83818 69.6416063 18.83818 69.6416063 16.4009511 63.7747831 16.4009511 63.7747831 11.549284 70.8301049 11.549284 71.1605519 8.9635699 61 8.9635699 61 26.545597 71.330635 26.545597 71.330635 23.9598829 63.7747831 23.9598829 63.7747831 18.83818"></polyline>
            <polyline id="Fill-12" fill="#FFFFFF" points="46.7747831 8.9635699 44 8.9635699 44 26.545597 54.3549325 26.545597 54.3549325 23.9605735 46.7747831 23.9605735 46.7747831 8.9635699"></polyline>
            <polyline id="Fill-9" fill="#FFFFFF" points="83.4131715 19.9887675 79.7664525 8.9635699 77 8.9635699 82.8057321 26.545597 83.9199495 26.545597 89.7256817 8.9635699 87.1050146 8.9635699 83.4131715 19.9887675"></polyline>
            <polyline id="Fill-11" fill="#FFFFFF" points="98.7747831 18.83818 104.641606 18.83818 104.641606 16.4009511 98.7747831 16.4009511 98.7747831 11.549284 105.830105 11.549284 106.160552 8.9635699 96 8.9635699 96 26.545597 106.330635 26.545597 106.330635 23.9598829 98.7747831 23.9598829 98.7747831 18.83818"></polyline>
            <polyline id="Fill-13" fill="#FFFFFF" points="115.774783 8.9635699 113 8.9635699 113 26.545597 123.071692 26.545597 123.402139 23.9605735 115.774783 23.9605735 115.774783 8.9635699"></polyline>
            <polyline id="Fill-14" fill="#FFFFFF" points="135.510728 23.9598829 135.510728 8.9635699 133.29826 8.9635699 128 12.2903287 129.225292 14.3325179 132.808143 12.1418435 132.808143 23.9598829 128.551902 23.9598829 128.221455 26.545597 139.033182 26.545597 139.362935 23.9598829 135.510728 23.9598829"></polyline>
        </g>
    </g>
</svg>